<svg height="1918" width="720" xmlns="http://www.w3.org/2000/svg">
<rect height="1918" fill="#555" width="720"></rect>
<text fill="#7f7" font-family="Courier New" font-size="12" xml:space="preserve">
<tspan x="10" y="26"></tspan>
<tspan x="10" y="42">&gt; npmdoc-bignum@0.0.1 test /home/travis/build/npmdoc/node-npmdoc-bignum</tspan>
<tspan x="10" y="58">&gt; (set -e; export PORT=$(utility2 shServerPortRandom); utility2 test test.js)</tspan>
<tspan x="10" y="74"></tspan>
<tspan x="10" y="90"></tspan>
<tspan x="10" y="106">[MODE_BUILD=npmTest] - 2017-04-07T23:08:36Z - npm-testing /home/travis/build/npmdoc/node-npmdoc-\</tspan>
<tspan x="10" y="122">bignum</tspan>
<tspan x="10" y="138"></tspan>
<tspan x="10" y="154"></tspan>
<tspan x="10" y="170">covering $ /home/travis/.nvm/versions/node/v6.10.2/bin/node /home/travis/build/npmdoc/node-npmdo\</tspan>
<tspan x="10" y="186">c-bignum/test.js</tspan>
<tspan x="10" y="202">merging file:///home/travis/build/npmdoc/node-npmdoc-bignum/tmp/build/test-report.json to test-r\</tspan>
<tspan x="10" y="218">eport</tspan>
<tspan x="10" y="234">&gt; server listening on http-port 36991</tspan>
<tspan x="10" y="250">created apidoc file:///home/travis/build/npmdoc/node-npmdoc-bignum/tmp/build/apidoc.html</tspan>
<tspan x="10" y="266"></tspan>
<tspan x="10" y="282"></tspan>
<tspan x="10" y="298">browserTest - created electron entry-page /home/travis/build/npmdoc/node-npmdoc-bignum/tmp/elect\</tspan>
<tspan x="10" y="314">ron.15b4aad34730.355d74960df24.html</tspan>
<tspan x="10" y="330"></tspan>
<tspan x="10" y="346">[node test-case 1 of 6 passed] - testCase_buildLib_default</tspan>
<tspan x="10" y="362">[node test-case 2 of 6 passed] - testCase_buildReadme_default</tspan>
<tspan x="10" y="378">[node test-case 3 of 6 passed] - testCase_buildTest_default</tspan>
<tspan x="10" y="394"></tspan>
<tspan x="10" y="410">browserTest - created electron entry-page /home/travis/build/npmdoc/node-npmdoc-bignum/tmp/elect\</tspan>
<tspan x="10" y="426">ron.15b4aad34c50.3639544f306f3.html</tspan>
<tspan x="10" y="442"></tspan>
<tspan x="10" y="458">Xlib:  extension "RANDR" missing on display ":99.0".</tspan>
<tspan x="10" y="474">Xlib:  extension "RANDR" missing on display ":99.0".</tspan>
<tspan x="10" y="490">merging file:///home/travis/build/npmdoc/node-npmdoc-bignum/tmp/build/test-report.json to test-r\</tspan>
<tspan x="10" y="506">eport</tspan>
<tspan x="10" y="522">Xlib:  extension "RANDR" missing on display ":99.0".</tspan>
<tspan x="10" y="538">[4955:0407/230837:WARNING:audio_manager.cc(314)] Multiple instances of AudioManager detected</tspan>
<tspan x="10" y="554">[4955:0407/230837:WARNING:audio_manager.cc(275)] Multiple instances of AudioManager detected</tspan>
<tspan x="10" y="570">&gt; server listening on http-port 60064</tspan>
<tspan x="10" y="586">[4996:0407/230837:ERROR:sandbox_linux.cc(343)] InitializeSandbox() called with multiple threads \</tspan>
<tspan x="10" y="602">in process gpu-process. </tspan>
<tspan x="10" y="618">[4955:0407/230837:ERROR:browser_gpu_channel_host_factory.cc(131)] Failed to create channel.</tspan>
<tspan x="10" y="634">merging file:///home/travis/build/npmdoc/node-npmdoc-bignum/tmp/build/test-report.json to test-r\</tspan>
<tspan x="10" y="650">eport</tspan>
<tspan x="10" y="666">Xlib:  extension "RANDR" missing on display ":99.0".</tspan>
<tspan x="10" y="682">[4967:0407/230838:WARNING:audio_manager.cc(314)] Multiple instances of AudioManager detected</tspan>
<tspan x="10" y="698">[4967:0407/230838:WARNING:audio_manager.cc(275)] Multiple instances of AudioManager detected</tspan>
<tspan x="10" y="714">[5033:0407/230838:ERROR:sandbox_linux.cc(343)] InitializeSandbox() called with multiple threads \</tspan>
<tspan x="10" y="730">in process gpu-process. </tspan>
<tspan x="10" y="746"></tspan>
<tspan x="10" y="762">browserTest - opened url /home/travis/build/npmdoc/node-npmdoc-bignum/tmp/build/apidoc.html</tspan>
<tspan x="10" y="778"></tspan>
<tspan x="10" y="794">[4967:0407/230838:ERROR:browser_gpu_channel_host_factory.cc(131)] Failed to create channel.</tspan>
<tspan x="10" y="810"></tspan>
<tspan x="10" y="826">browserTest - opened url http://127.0.0.1:36991?modeTest=1</tspan>
<tspan x="10" y="842"></tspan>
<tspan x="10" y="858">[4967:0407/230839:INFO:CONSOLE(249)] "----------|-----------|-----------|-----------|-----------\</tspan>
<tspan x="10" y="874">|</tspan>
<tspan x="10" y="890">File      |   % Stmts |% Branches |   % Funcs |   % Lines |</tspan>
<tspan x="10" y="906">----------|-----------|-----------|-----------|-----------|</tspan>
<tspan x="10" y="922">----------|-----------|-----------|-----------|-----------|</tspan>
<tspan x="10" y="938">All files |       100 |       100 |       100 |       100 |</tspan>
<tspan x="10" y="954">----------|-----------|-----------|-----------|-----------|</tspan>
<tspan x="10" y="970">", source: file:///home/travis/build/npmdoc/node-npmdoc-bignum/tmp/electron.15b4aad34c50.3639544\</tspan>
<tspan x="10" y="986">f306f3.html (249)</tspan>
<tspan x="10" y="1002">[4967:0407/230839:INFO:CONSOLE(249)] "created coverage file:///tmp/build/coverage.html/index.htm\</tspan>
<tspan x="10" y="1018">l", source: file:///home/travis/build/npmdoc/node-npmdoc-bignum/tmp/electron.15b4aad34c50.363954\</tspan>
<tspan x="10" y="1034">4f306f3.html (249)</tspan>
<tspan x="10" y="1050">[node test-case 4 of 6 passed] - testCase_buildApp_default</tspan>
<tspan x="10" y="1066"></tspan>
<tspan x="10" y="1082">browserTest - exit-code 1 - /home/travis/build/npmdoc/node-npmdoc-bignum/tmp/build/apidoc.html</tspan>
<tspan x="10" y="1098"></tspan>
<tspan x="10" y="1114">[node test-case 5 of 6 passed] - testCase_buildApidoc_default</tspan>
<tspan x="10" y="1130"></tspan>
<tspan x="10" y="1146">browserTest - created screenCapture file:///home/travis/build/npmdoc/node-npmdoc-bignum/tmp/buil\</tspan>
<tspan x="10" y="1162">d/screenCapture.%2F.png</tspan>
<tspan x="10" y="1178"></tspan>
<tspan x="10" y="1194">browserTest - created screenCapture file:///home/travis/build/npmdoc/node-npmdoc-bignum/tmp/buil\</tspan>
<tspan x="10" y="1210">d/screenCapture.%2F.html</tspan>
<tspan x="10" y="1226">[4967:0407/230853:WARNING:ipc_message_attachment_set.cc(57)] MessageAttachmentSet destroyed with\</tspan>
<tspan x="10" y="1242"> unconsumed descriptors: 0/1</tspan>
<tspan x="10" y="1258"></tspan>
<tspan x="10" y="1274">browserTest - exit-code 0 - http://127.0.0.1:36991?modeTest=1</tspan>
<tspan x="10" y="1290"></tspan>
<tspan x="10" y="1306"></tspan>
<tspan x="10" y="1322">browserTest - merged coverage from /home/travis/build/npmdoc/node-npmdoc-bignum/tmp/coverage.%2F\</tspan>
<tspan x="10" y="1338">.json</tspan>
<tspan x="10" y="1354"></tspan>
<tspan x="10" y="1370"></tspan>
<tspan x="10" y="1386">browserTest - merging test-report from /home/travis/build/npmdoc/node-npmdoc-bignum/tmp/test-rep\</tspan>
<tspan x="10" y="1402">ort.%2F.json</tspan>
<tspan x="10" y="1418"></tspan>
<tspan x="10" y="1434">[node test-case 6 of 6 passed] - testCase_webpage_default</tspan>
<tspan x="10" y="1450">---------------------------|-----------|-----------|-----------|-----------|</tspan>
<tspan x="10" y="1466">File                       |   % Stmts |% Branches |   % Funcs |   % Lines |</tspan>
<tspan x="10" y="1482">---------------------------|-----------|-----------|-----------|-----------|</tspan>
<tspan x="10" y="1498">   node-npmdoc-bignum/     |       100 |       100 |       100 |       100 |</tspan>
<tspan x="10" y="1514">      example.js           |       100 |       100 |       100 |       100 |</tspan>
<tspan x="10" y="1530">      lib.npmdoc_bignum.js |       100 |       100 |       100 |       100 |</tspan>
<tspan x="10" y="1546">      test.js              |       100 |       100 |       100 |       100 |</tspan>
<tspan x="10" y="1562">---------------------------|-----------|-----------|-----------|-----------|</tspan>
<tspan x="10" y="1578">All files                  |       100 |       100 |       100 |       100 |</tspan>
<tspan x="10" y="1594">---------------------------|-----------|-----------|-----------|-----------|</tspan>
<tspan x="10" y="1610"></tspan>
<tspan x="10" y="1626">created coverage file:///home/travis/build/npmdoc/node-npmdoc-bignum/tmp/build/coverage.html/ind\</tspan>
<tspan x="10" y="1642">ex.html</tspan>
<tspan x="10" y="1658">merging file:///home/travis/build/npmdoc/node-npmdoc-bignum/tmp/build/test-report.json to test-r\</tspan>
<tspan x="10" y="1674">eport</tspan>
<tspan x="10" y="1690"></tspan>
<tspan x="10" y="1706">-------------------------------------------------------</tspan>
<tspan x="10" y="1722">| test-report - buildNpmdoc - node - linux v6.10.2 - 2017-04-07T23:08:15.899Z</tspan>
<tspan x="10" y="1738">|   36269 ms            0 failed        6 passed      |</tspan>
<tspan x="10" y="1754">-------------------------------------------------------</tspan>
<tspan x="10" y="1770"></tspan>
<tspan x="10" y="1786">created test-report file:///home/travis/build/npmdoc/node-npmdoc-bignum/tmp/build/test-report.ht\</tspan>
<tspan x="10" y="1802">ml</tspan>
<tspan x="10" y="1818"></tspan>
<tspan x="10" y="1834"></tspan>
<tspan x="10" y="1850">npmTest - 0 failed tests</tspan>
<tspan x="10" y="1866"></tspan>
<tspan x="10" y="1882"></tspan>
<tspan x="10" y="1898">[MODE_BUILD=npmTest] - 2017-04-07T23:08:55Z - EXIT_CODE - 0</tspan>
</text>
</svg>
